<svg width="95" height="17" viewBox="0 0 95 17" fill="none" xmlns="http://www.w3.org/2000/svg">
<path d="M5.25977 5.17969C6.74414 5.17969 7.86068 5.64844 8.60938 6.58594C9.36458 7.51693 9.74219 8.88086 9.74219 10.6777C9.74219 12.4421 9.34505 13.8027 8.55078 14.7598C7.76302 15.7168 6.65299 16.1953 5.2207 16.1953C4.46549 16.1953 3.78516 16.0391 3.17969 15.7266C2.57422 15.4141 2.0957 14.9714 1.74414 14.3984H1.65625L1.38281 16H0.777344V0.804688H1.74414V4.62305C1.74414 5.19596 1.73112 5.72331 1.70508 6.20508L1.67578 7.03516H1.74414C2.14779 6.39714 2.63281 5.92839 3.19922 5.62891C3.77214 5.32943 4.45898 5.17969 5.25977 5.17969ZM5.24023 6.05859C3.99023 6.05859 3.09505 6.41667 2.55469 7.13281C2.01432 7.84896 1.74414 9.0306 1.74414 10.6777V10.8438C1.74414 12.4453 2.02409 13.5944 2.58398 14.291C3.15039 14.9876 4.0293 15.3359 5.2207 15.3359C6.37956 15.3359 7.25195 14.9323 7.83789 14.125C8.42383 13.3112 8.7168 12.1556 8.7168 10.6582C8.7168 7.5918 7.55794 6.05859 5.24023 6.05859Z" fill="black"/>
<path d="M21.4707 10.6777C21.4707 12.4095 21.0508 13.7637 20.2109 14.7402C19.3711 15.7103 18.2122 16.1953 16.7344 16.1953C15.8034 16.1953 14.9831 15.9707 14.2734 15.5215C13.5638 15.0723 13.0202 14.4277 12.6426 13.5879C12.265 12.748 12.0762 11.778 12.0762 10.6777C12.0762 8.94596 12.4961 7.59831 13.3359 6.63477C14.1758 5.66471 15.3281 5.17969 16.793 5.17969C18.2513 5.17969 19.3939 5.67122 20.2207 6.6543C21.054 7.63086 21.4707 8.97201 21.4707 10.6777ZM13.0918 10.6777C13.0918 12.1361 13.4108 13.2754 14.0488 14.0957C14.6934 14.9095 15.6016 15.3164 16.7734 15.3164C17.9453 15.3164 18.8503 14.9095 19.4883 14.0957C20.1328 13.2754 20.4551 12.1361 20.4551 10.6777C20.4551 9.21289 20.1296 8.07682 19.4785 7.26953C18.834 6.46224 17.9258 6.05859 16.7539 6.05859C15.582 6.05859 14.6771 6.46224 14.0391 7.26953C13.4076 8.07031 13.0918 9.20638 13.0918 10.6777Z" fill="black"/>
<path d="M33.1895 10.6777C33.1895 12.4095 32.7695 13.7637 31.9297 14.7402C31.0898 15.7103 29.931 16.1953 28.4531 16.1953C27.5221 16.1953 26.7018 15.9707 25.9922 15.5215C25.2826 15.0723 24.7389 14.4277 24.3613 13.5879C23.9837 12.748 23.7949 11.778 23.7949 10.6777C23.7949 8.94596 24.2148 7.59831 25.0547 6.63477C25.8945 5.66471 27.0469 5.17969 28.5117 5.17969C29.9701 5.17969 31.1126 5.67122 31.9395 6.6543C32.7728 7.63086 33.1895 8.97201 33.1895 10.6777ZM24.8105 10.6777C24.8105 12.1361 25.1296 13.2754 25.7676 14.0957C26.4121 14.9095 27.3203 15.3164 28.4922 15.3164C29.6641 15.3164 30.569 14.9095 31.207 14.0957C31.8516 13.2754 32.1738 12.1361 32.1738 10.6777C32.1738 9.21289 31.8483 8.07682 31.1973 7.26953C30.5527 6.46224 29.6445 6.05859 28.4727 6.05859C27.3008 6.05859 26.3958 6.46224 25.7578 7.26953C25.1263 8.07031 24.8105 9.20638 24.8105 10.6777Z" fill="black"/>
<path d="M37.0762 11.3418L42.4961 5.38477H43.668L39.4883 9.91602L44.0293 16H42.8672L38.834 10.6387L37.0957 12.2207V16H36.1289V0.804688H37.0957V8.42188L37.0273 11.3418H37.0762Z" fill="black"/>
<path d="M57.8965 4.98438C59.1074 4.98438 60.0189 5.29688 60.6309 5.92188C61.2493 6.54688 61.5586 7.54948 61.5586 8.92969V16H59.2637V9.33984C59.2637 8.51953 59.1042 7.90104 58.7852 7.48438C58.4661 7.06771 57.9811 6.85938 57.3301 6.85938C56.4186 6.85938 55.7611 7.15234 55.3574 7.73828C54.9603 8.31771 54.7617 9.16081 54.7617 10.2676V16H52.4668V9.33984C52.4668 8.79297 52.3952 8.33724 52.252 7.97266C52.1152 7.60156 51.9036 7.32487 51.6172 7.14258C51.3307 6.95378 50.9694 6.85938 50.5332 6.85938C49.9017 6.85938 49.3971 7.0026 49.0195 7.28906C48.6484 7.57552 48.3815 7.9987 48.2188 8.55859C48.056 9.11198 47.9746 9.79232 47.9746 10.5996V16H45.6797V5.18945H47.4668L47.7891 6.64453H47.916C48.1374 6.26693 48.4108 5.95768 48.7363 5.7168C49.0684 5.4694 49.4362 5.28711 49.8398 5.16992C50.2435 5.04622 50.6634 4.98438 51.0996 4.98438C51.9069 4.98438 52.5872 5.1276 53.1406 5.41406C53.694 5.69401 54.1074 6.1237 54.3809 6.70312H54.5566C54.8952 6.11719 55.3672 5.68424 55.9727 5.4043C56.5781 5.12435 57.2194 4.98438 57.8965 4.98438Z" fill="black"/>
<path d="M69 4.98438C70.3672 4.98438 71.3991 5.28711 72.0957 5.89258C72.7988 6.49805 73.1504 7.44206 73.1504 8.72461V16H71.5195L71.0801 14.4668H71.002C70.696 14.8574 70.3802 15.1797 70.0547 15.4336C69.7292 15.6875 69.3516 15.8763 68.9219 16C68.4987 16.1302 67.9811 16.1953 67.3691 16.1953C66.7246 16.1953 66.1484 16.0781 65.6406 15.8438C65.1328 15.6029 64.7324 15.2383 64.4395 14.75C64.1465 14.2617 64 13.6432 64 12.8945C64 11.7812 64.4134 10.9447 65.2402 10.3848C66.0736 9.82487 67.3301 9.51562 69.0098 9.45703L70.8848 9.38867V8.82227C70.8848 8.07357 70.709 7.53971 70.3574 7.2207C70.0124 6.90169 69.5241 6.74219 68.8926 6.74219C68.3522 6.74219 67.8281 6.82031 67.3203 6.97656C66.8125 7.13281 66.3177 7.32487 65.8359 7.55273L65.0938 5.93164C65.6211 5.65169 66.2201 5.42383 66.8906 5.24805C67.5677 5.07227 68.2708 4.98438 69 4.98438ZM70.875 10.834L69.4785 10.8828C68.3327 10.9219 67.5286 11.1172 67.0664 11.4688C66.6042 11.8203 66.373 12.3021 66.373 12.9141C66.373 13.4479 66.5326 13.8385 66.8516 14.0859C67.1706 14.3268 67.5905 14.4473 68.1113 14.4473C68.9056 14.4473 69.5632 14.2227 70.084 13.7734C70.6113 13.3177 70.875 12.6504 70.875 11.7715V10.834Z" fill="black"/>
<path d="M81.8418 4.98438C82.0241 4.98438 82.2227 4.99414 82.4375 5.01367C82.6523 5.0332 82.8379 5.05924 82.9941 5.0918L82.7793 7.24023C82.6426 7.20117 82.4733 7.17188 82.2715 7.15234C82.0762 7.13281 81.9004 7.12305 81.7441 7.12305C81.334 7.12305 80.9434 7.19141 80.5723 7.32812C80.2012 7.45833 79.8724 7.66016 79.5859 7.93359C79.2995 8.20052 79.0749 8.53581 78.9121 8.93945C78.7493 9.3431 78.668 9.81185 78.668 10.3457V16H76.3633V5.18945H78.1602L78.4727 7.09375H78.5801C78.7949 6.70964 79.0618 6.35807 79.3809 6.03906C79.6999 5.72005 80.0645 5.46615 80.4746 5.27734C80.8913 5.08203 81.347 4.98438 81.8418 4.98438Z" fill="black"/>
<path d="M87.291 0.804688V8.14844C87.291 8.48047 87.278 8.84505 87.252 9.24219C87.2259 9.63281 87.1999 10.0007 87.1738 10.3457H87.2227C87.3919 10.1178 87.5938 9.85091 87.8281 9.54492C88.069 9.23893 88.2969 8.97201 88.5117 8.74414L91.8125 5.18945H94.4492L90.123 9.83789L94.7324 16H92.0371L88.5801 11.2539L87.291 12.3574V16H84.9961V0.804688H87.291Z" fill="black"/>
</svg>
